# xmcd
#
# Track frame offsets: 
#        150
#        18110
#        33027
#        45610
#        62889
#        76707
#        93028
#        109535
#        124611
#        146660
#        160282
#        178283
#        192211
#        205874
#        219358
#        237022
#        249598
#        270743
#        287536
#
# Disc length: 4136 seconds
#
# Revision: 0
# Processed by: cddbd v1.5.1PL0 Copyright (c) Steve Scherf et al.
# Submitted via: ExactAudioCopy v0.95a3
#
DISCID=f8102613
DTITLE=carpenter - CARPENTERS ¾­µä½ðÇúA
DYEAR=2002
DGENRE=Dream
TTITLE0=yesterday once more
TTITLE1=sing
TTITLE2=please mr postman
TTITLE3=superstar
TTITLE4=theres a king of hush
TTITLE5=raing days and mondays
TTITLE6=jambalaya
TTITLE7=touch me whe we're dancing
TTITLE8=this masouerade
TTITLE9=sweet sweet smile
TTITLE10=only yessterday
TTITLE11=we've only just began
TTITLE12=top of the world
TTITLE13=it's going to take some time
TTITLE14=I won't last a day wiyhou you
TTITLE15=huring each oyter
TTITLE16=solitair
TTITLE17=ordinary fool
TTITLE18=because we are in love
EXTD=
EXTT0=
EXTT1=
EXTT2=
EXTT3=
EXTT4=
EXTT5=
EXTT6=
EXTT7=
EXTT8=
EXTT9=
EXTT10=
EXTT11=
EXTT12=
EXTT13=
EXTT14=
EXTT15=
EXTT16=
EXTT17=
EXTT18=
PLAYORDER=
